# xmcd CD database file
#
# Track frame offsets:
#	150
#	24690
#	43275
#	63152
#	81262
#	98650
#	115172
#	135010
#	158545
#
# Disc length: 2496 seconds
#
# Revision: 0
# Processed by: cddbd v1.5PL3 Copyright (c) Steve Scherf et al.
# Submitted via: CDex 1.51
#
DISCID=6509be09
DTITLE=Boy Thai - Andaman Sun
DYEAR=1998
DGENRE=New Age
TTITLE0=Burmese Salsa
TTITLE1=Lao Damnoen Sai
TTITLE2=Carnaval
TTITLE3=Funky Isan
TTITLE4=Chameleon
TTITLE5=J.J. Cha Cha Cha
TTITLE6=White Monkey
TTITLE7=Lao Kam Hom
TTITLE8=Andaman Sun
EXTD=YEAR: 1998
EXTT0=
EXTT1=
EXTT2=
EXTT3=
EXTT4=
EXTT5=
EXTT6=
EXTT7=
EXTT8=
PLAYORDER=
